<?xml version="1.0" encoding="UTF-8" standalone="no"?>
<!DOCTYPE svg PUBLIC "-//W3C//DTD SVG 1.1//EN" "http://www.w3.org/Graphics/SVG/1.1/DTD/svg11.dtd">
<!-- Created with Vectornator (http://vectornator.io/) -->
<svg height="100%" stroke-miterlimit="10" style="fill-rule:nonzero;clip-rule:evenodd;stroke-linecap:round;stroke-linejoin:round;" version="1.1" viewBox="0 0 512 512" width="100%" xml:space="preserve" xmlns="http://www.w3.org/2000/svg" xmlns:vectornator="http://vectornator.io" xmlns:xlink="http://www.w3.org/1999/xlink">
<defs/>
<g id="Layer-1" vectornator:layerName="Layer 1">
<g opacity="1" vectornator:layerName="Group 1">
<path d="M334.453 366.173C331.891 364.526 329.054 363.716 325.942 363.742C277.77 364.122 229.78 364.309 181.971 364.304L174.142 364.344C173.724 364.347 173.323 364.177 173.033 363.873C172.743 363.57 172.59 363.16 172.61 362.74L173.172 351.534C173.178 351.394 173.245 351.265 173.356 351.177C173.466 351.09 173.609 351.053 173.749 351.076L180.527 352.231C180.595 352.234 180.656 352.19 180.673 352.124C180.691 352.059 180.66 351.99 180.599 351.959C177.327 350.756 173.757 350.058 170.821 348.662C166.8 346.742 162.949 344.512 159.27 341.972C123.831 317.49 97.2316 281.457 86.611 239.577C79.2954 210.723 79.2793 181.806 85.2955 152.824C95.8839 101.799 130.465 59.0601 176.196 35.3484C188.974 28.7226 202.346 24.9686 216.704 21.5754C240.074 16.0513 263.558 15.5727 287.158 20.1396C302.07 23.0193 314.118 25.6905 327.209 31.4419C362.14 46.7845 389.061 71.0015 407.97 104.093C425.882 135.457 432.644 169.781 430.751 205.622C428.794 242.577 414.219 278.939 391.061 307.022C380.333 320.033 367.039 332.076 351.178 343.151C349.424 344.376 345.322 346.288 338.873 348.887C338.664 348.972 338.562 349.127 338.568 349.352L338.856 366.181C338.859 366.373 338.777 366.555 338.631 366.68C338.485 366.804 338.291 366.856 338.102 366.823L334.453 366.173ZM139.593 158.728C143.326 161.236 147.275 161.239 151.441 158.736C151.65 158.605 151.815 158.415 151.914 158.19C153.535 154.452 154.064 150.69 155.853 146.816C164.982 127.027 178.345 109.467 198.439 99.8737C202.578 97.9004 206.236 95.5822 210.6 94.3469C213.033 93.657 215.472 92.9806 217.916 92.3174C221.942 91.2265 223.354 91.4832 224.349 87.3842C225.408 83.0472 225.114 79.0872 223.467 75.5043C222.576 73.5711 221.397 72.6486 219.231 73.1941C212.712 74.8305 205.811 77.0819 198.528 79.9482C168.567 91.7399 145.874 117.609 137.131 148.372C135.944 152.527 135.911 156.257 139.593 158.728ZM168.503 205.558C172.337 247.719 205.145 280.559 248.325 280.407C257.446 280.374 267.978 279.484 275.342 280.495C285.166 281.848 293.791 286.051 301.219 293.105C306.409 298.038 308.126 303.974 308.262 311.113C308.431 319.76 315.024 328.247 323.672 329.571C331.87 330.83 340.693 326.041 343.589 318.268C344.386 316.14 344.784 312.637 344.784 307.76C344.8 272.278 344.798 236.799 344.776 201.322C344.776 196.22 344.383 190.06 343.79 185.399C336.538 128.446 283.283 100.933 230.373 113.952C187.53 124.492 164.605 162.715 168.503 205.558Z" fill="#f3528b" fill-rule="nonzero" opacity="1" stroke="none" vectornator:layerName="path 1"/>
<path d="M139.593 158.728C135.911 156.257 135.944 152.527 137.131 148.372C145.874 117.609 168.567 91.7399 198.528 79.9482C205.811 77.0819 212.712 74.8305 219.231 73.1941C221.397 72.6486 222.576 73.5711 223.467 75.5043C225.114 79.0872 225.408 83.0472 224.349 87.3842C223.354 91.4832 221.942 91.2265 217.916 92.3174C215.472 92.9806 213.033 93.657 210.6 94.3469C206.236 95.5822 202.578 97.9004 198.439 99.8737C178.345 109.467 164.982 127.027 155.853 146.816C154.064 150.69 153.535 154.452 151.914 158.19C151.815 158.415 151.65 158.605 151.441 158.736C147.275 161.239 143.326 161.236 139.593 158.728Z" fill="#ffffff" fill-rule="nonzero" opacity="1" stroke="none" vectornator:layerName="path 2"/>
<path d="M248.325 280.407C205.145 280.559 172.337 247.719 168.503 205.558C164.605 162.715 187.53 124.492 230.373 113.952C283.283 100.933 336.538 128.446 343.79 185.399C344.383 190.06 344.776 196.22 344.776 201.322C344.798 236.799 344.8 272.278 344.784 307.76C344.784 312.637 344.386 316.14 343.589 318.268C340.693 326.041 331.87 330.83 323.672 329.571C315.024 328.247 308.431 319.76 308.262 311.113C308.126 303.974 306.409 298.038 301.219 293.105C293.791 286.051 285.166 281.848 275.342 280.495C267.978 279.484 257.446 280.374 248.325 280.407ZM217.097 232.229C235.282 250.133 260.791 242.617 281.342 245.489C291.337 246.885 299.824 249.796 308.471 254.441C308.786 254.612 308.95 254.516 308.96 254.152C309.276 234.403 309.201 214.665 308.736 194.937C308.134 169.589 291.377 151.059 266.55 147.161C239.454 142.901 213.287 153.955 205.21 181.798C200.172 199.148 203.886 219.218 217.097 232.229Z" fill="#ffffff" fill-rule="nonzero" opacity="1" stroke="none" vectornator:layerName="path 3"/>
<path d="M217.097 232.229C203.886 219.218 200.172 199.148 205.21 181.798C213.287 153.955 239.454 142.901 266.55 147.161C291.377 151.059 308.134 169.589 308.736 194.937C309.201 214.665 309.276 234.403 308.96 254.152C308.95 254.516 308.786 254.612 308.471 254.441C299.824 249.796 291.337 246.885 281.342 245.489C260.791 242.617 235.282 250.133 217.097 232.229Z" fill="#f3528b" fill-rule="nonzero" opacity="1" stroke="none" vectornator:layerName="path 4"/>
<path d="M334.453 366.173C341.399 370.288 344.736 375.678 345.049 383.788C345.402 392.764 344.849 401.837 345.025 411.447C345.148 417.923 345.049 422.409 344.728 424.907C342.894 439.126 335.886 450.303 323.704 458.437C302.76 472.418 278.149 480.368 257.526 494.863C257.358 494.981 257.135 494.993 256.949 494.895C237.782 484.734 218.549 474.654 199.25 464.653C177.88 453.576 167.484 439.305 167.524 414.759C167.546 404.727 167.535 394.698 167.492 384.671C167.46 375.093 172.286 368.304 181.971 364.304C229.78 364.309 277.77 364.122 325.942 363.742C329.054 363.716 331.891 364.526 334.453 366.173Z" fill="#2e64fd" fill-rule="nonzero" opacity="1" stroke="none" vectornator:layerName="path 5"/>
</g>
</g>
</svg>
